# xmcd CD database file
#
# Track frame offsets:
#	150
#	25270
#	43107
#	61012
#	87912
#	114240
#	149987
#	173845
#	195370
#	210412
#	229825
#	251800
#	268247
#	285470
#
# Disc length: 4044 seconds
#
# Revision: 0
# Processed by: cddbd v1.5.1PL0 Copyright (c) Steve Scherf et al.
# Submitted via: CDex 1.50
#
DISCID=c90fca0e
DTITLE=Henry Johnson - Organic
DYEAR=2003
DGENRE=Jazz
TTITLE0=It Could Happen To You
TTITLE1=Know It All
TTITLE2=If It's The Last Thing I Do - Vocal Duet
TTITLE3=Cascavelo
TTITLE4=Hello Like Before - Vocal Duet
TTITLE5=It's About Time
TTITLE6=A Man Ain't Supposed To Cry - Vocal: Henry Johnson
TTITLE7=My Foolish Heart
TTITLE8=The More I See You - Vocal Duet
TTITLE9=Third Rail
TTITLE10=It's Alright With Me
TTITLE11=Blues for James and Dave
TTITLE12=The Scorcher
TTITLE13=If It's The Last Thing I Do - Vocal: Nancy Wilson
EXTD=YEAR: 2003
EXTT0=
EXTT1=
EXTT2=
EXTT3=
EXTT4=
EXTT5=
EXTT6=
EXTT7=
EXTT8=
EXTT9=
EXTT10=
EXTT11=
EXTT12=
EXTT13=
PLAYORDER=
